<svg width="95" height="102" viewBox="0 0 95 102" fill="none" xmlns="http://www.w3.org/2000/svg">
<path d="M30.336 73.344C28.672 77.312 26.496 81.792 26.496 84.992C26.496 90.368 29.312 93.184 33.792 93.184C40.704 93.184 43.52 83.712 45.44 77.952L67.584 11.52C70.272 3.456 75.648 0 82.432 0C88.704 0 94.976 4.736 94.976 14.08C94.976 19.456 90.88 24.704 87.68 29.696L50.56 88.96C44.032 99.456 39.808 101.12 33.28 101.12C27.136 101.12 20.864 97.792 18.56 88.96L2.048 25.472C1.024 21.76 0 17.792 0 14.848C0 5.888 7.168 0 14.848 0C21.76 0 27.008 4.608 26.88 11.904C26.752 17.408 19.072 26.24 17.28 28.416C14.336 32 12.928 35.328 14.848 37.248C17.28 39.68 19.072 37.76 22.4 35.2L31.232 28.16C35.84 24.448 39.04 21.632 42.624 21.632C46.848 21.632 49.536 24.704 49.536 28.16C49.536 31.488 46.976 34.688 44.16 41.216L30.336 73.344Z" fill="white"/>
</svg>
